<svg id="Layer_1" data-name="Layer 1" xmlns="http://www.w3.org/2000/svg" viewBox="0 0 1374.94 1092.67"><defs><style>.cls-1{fill:#cecece;}.cls-2{fill:#fff;}.cls-3{fill:none;}.cls-4{fill:#a1d1ff;}.cls-5{fill:#a1d1ff;}</style></defs><title>AWSPX_LOGO_v2</title><path class="cls-1" d="M261.07,207A233.52,233.52,0,0,0,98.31,608.15,6.5,6.5,0,0,1,95.85,619a120.36,120.36,0,0,0,38.38,234.44H1241.62a100.47,100.47,0,0,0,0-200.94c-1.75,0-3.56,0-5.36.15a6.51,6.51,0,0,1-5.21-10.81,74.61,74.61,0,0,0-55.83-124.13,6.5,6.5,0,0,1-4-11.61c49.32-38.72,73.3-98.33,73.3-182.22A233.58,233.58,0,0,0,852.12,152.56a6.5,6.5,0,0,1-10.77-3.36,173.49,173.49,0,0,0-340.61,10.42,6.5,6.5,0,0,1-9.7,4.58,94,94,0,0,0-137.47,54.16,6.51,6.51,0,0,1-8.56,4.21A232.39,232.39,0,0,0,261.07,207" transform="translate(18.97)"/><path class="cls-2" d="M91.7,313.67a234.72,234.72,0,0,1,175.09-2.82,6.51,6.51,0,0,0,8.57-4.21,94.87,94.87,0,0,1,33.46-48.1A94.11,94.11,0,0,1,413,252.41a6.51,6.51,0,0,0,9.72-4.59A173.53,173.53,0,0,1,470,154,94.06,94.06,0,0,0,353.6,217.29,6.51,6.51,0,0,1,345,221.5a234.13,234.13,0,0,0-293.41,114A233.26,233.26,0,0,1,91.7,313.67" transform="translate(18.97)"/><path class="cls-2" d="M1313.49,683.43A99.93,99.93,0,0,0,1242.36,654c-1.76,0-3.57,0-5.38.14a6.5,6.5,0,0,1-5.2-10.82A74.71,74.71,0,0,0,1175.87,519a6.51,6.51,0,0,1-4-11.63c49.38-38.77,73.39-98.45,73.39-182.46A233.89,233.89,0,0,0,852.34,153.4,6.5,6.5,0,0,1,841.57,150a173.7,173.7,0,0,0-331.45-25,173.44,173.44,0,0,1,193,17.29,174.35,174.35,0,0,1,60.16,97,6.5,6.5,0,0,0,10.77,3.36A233.82,233.82,0,0,1,1167,414.26c0,84-24,143.69-73.39,182.46a6.51,6.51,0,0,0,4,11.63,74.72,74.72,0,0,1,55.9,124.3,6.5,6.5,0,0,0,5.21,10.81c1.8-.09,3.61-.14,5.37-.14a100.62,100.62,0,0,1,100.6,100.6c0,3-.15,5.91-.41,8.82a100.61,100.61,0,0,0,49.18-169.31" transform="translate(18.97)"/><path d="M1242.36,867H133.52A133.55,133.55,0,0,1,81.36,610.5,247,247,0,0,1,342.88,207.79a108.15,108.15,0,0,1,35.88-48.19A106.11,106.11,0,0,1,443.29,138a107.25,107.25,0,0,1,46,10.37,186.74,186.74,0,0,1,362.3-12.89A246.82,246.82,0,0,1,1258.26,323.7c0,41.93-5.67,77.38-17.33,108.38-11,29.15-27.46,54-49.12,74.14A87.75,87.75,0,0,1,1249.67,640a113.62,113.62,0,0,1-7.31,227M260.53,206.73a233.81,233.81,0,0,0-163,401.64,6.51,6.51,0,0,1-2.46,10.84A120.52,120.52,0,0,0,133.52,854H1242.36a100.6,100.6,0,1,0,0-201.19c-1.76,0-3.57,0-5.38.14a6.5,6.5,0,0,1-5.2-10.82,74.71,74.71,0,0,0-55.91-124.29,6.51,6.51,0,0,1-4-11.63c49.38-38.77,73.39-98.45,73.39-182.46A233.89,233.89,0,0,0,852.34,152.19a6.5,6.5,0,0,1-10.77-3.36,173.72,173.72,0,0,0-341.06,10.43,6.51,6.51,0,0,1-9.72,4.59,94.11,94.11,0,0,0-137.64,54.23,6.51,6.51,0,0,1-8.58,4.21,232.72,232.72,0,0,0-84-15.56" transform="translate(18.97)"/><path d="M1070.61,735.09,908.9,782.52,899.39,781l38.16-66.64L891.73,779.7l-176-28.84,52.78-41.13L700.85,751,673,769l-14.07,8.4-5.86-48.25L770.2,650.7,737,662.16l34.39-51.58,8.71-6.43,40,5.86,39.55,1.14,76.22-5.73-112.9.57-35.79-7,97.69-72,52.72-32.09,168.5,16.05L947.87,489.08l39-19.49-47,14.9L873.36,526.9l-14.9,3.44-98.58,71.07,17.2-79.09-26.37,88.26L720.91,653,649.67,701.1l-1-8-2.29-56.75,14.9-43.55,14.63-31.71,61.59-19.87L679,554.58l13.31-28.82,47.8-57,76-49.6L923.8,366.43l21.78-5.73,160.47-30.95-141,22.92-10.31-1.14L1027,258.68,949,348.09,818.34,408.84l-66.48,45.85-6.28,2.79,29.21-87.61-30.95,76.8-12.61,17.19-59.61,66.48-18.34-91.7L681.11,313l-27.48-26,14.06,22.47,2.75,16.78-16.81,60.27L632.08,371l-41.84-86,36.68,87.11,16.62,21.21-2.24,35.91-4.06,16.24,18.34,87.11-32.1,84.83-59.6-98.58,27.51-188-39,185.69-20.63-16.05L614.31,645,618.9,716l-75.66-61.89L495.1,537.22l50.44-236.13L518,405.42l-12.56-43L465.3,289.06,445.81,230.6l15.48,58.46s39.54,76.8,39.54,78.51,13.18,51,13.18,51l.63-.51-12.81,48.5-49.14-49.13-29.16-2.3-20.13-65.9,17.52,65.69L358.12,410,299.67,360.7,351.25,410l-68.2,24.07L138.47,379l146.3,59L353,413.43l69.32,6.64,63.64,238.65,45.85,48.14L397.92,683.11l-6.55-3.18-63.62-51.58-42.41-72.22L171.41,518.88,281.9,559,326,632.36l49.68,43L231.46,610.58l167.36,87.11,50.71,11.76L369,741.25l-83.67-17.19L177,712.6l114,16L365,745.26l-88.83,72.22L376.46,743,469.27,714,557,734.37l20.63,45.85-9.17,126.09L573.05,943,555.34,1053.9H659V961.15l-24.08-68.66L641.09,844l95.7-74.74,170.09,24.32,165.93-52.3,172.94,32.1ZM495.1,649.55l-70-229.21,23.57,2.26,51.12,51.65L481.35,544.1,541,683.94Z" transform="translate(18.97)"/><path d="M1149.62,811.2c-1.57-3.85-3-7.78-4.36-11.75A6.1,6.1,0,0,0,1145,798c-.7-2-1.44-4-2.2-6-3.58-10.94-7-22-11.76-32.29a10.33,10.33,0,0,0-2.4-3c-3.27-8.07-1.17-3.2-3.78-11.48-2.24-7.13-.52-15.45-1.13-23.19-1-13.51-3.13-27-3.66-40.49a170,170,0,0,0-17.93-69.24c-4.68-9.49-10.81-18.73-22.15-20.58a27.61,27.61,0,0,1-12.22-8c-.58-.67-6-7.85-6.62-8.55h0c.17,0,1.71-.37,1.71-.37-2.75-2.13-20.74-14.58-29.48-17.07-6.41-1.83-21,.79-26.6,3.06,0,0-23-3.13-26.27-2.92-4.91.31-13,.77-14.93,6.36,3.44,1.25,37.15,17.31,37.15,17.31,5.22,9.61,8.47,24.34,13.25,34.16a11.38,11.38,0,0,1,.34,7.52c-6.18,21-.46,38.74,14.4,54.12a22.53,22.53,0,0,1,4.17,5.7c7.49,15.41,14.65,31,30.55,39.95,5.46,10,10.43,17.1,10.19,20.7,8,14.73-.49-2.25,10.16,39.09,1,4.5,1.89,8.69,2.75,12.68a116.49,116.49,0,0,1-1.57,28.28c-.67,3.91-.38,8-.58,13.5l4.78-4,5.34,8.11,1.45-.34,2.88-24.94a69,69,0,0,1,3,19.82c0,5.19,4.09,5.37,6.81,6.89s5.93,1.95,9,2.3a23.74,23.74,0,0,0,8.24-.37c2.89-.71,5.58-2.28,8.69-3.62l5.43-18.34,11.48.78c-1.59-5.21-2.43-8.92-3.85-12.4" transform="translate(18.97)"/><path d="M189.56,507.63a5.21,5.21,0,0,1,0-1.37c.23-2,.51-4.05.8-6.07,1.08-10.95,2-22,4.3-32.56a9.89,9.89,0,0,1,1.63-3.28c1.38-8.2.43-3.22,1.14-11.49.62-7.12-2.7-14.53-3.74-21.87-1.81-12.83-2.66-25.82-5-38.54a162.57,162.57,0,0,1,2.41-68.32c2.41-9.83,6.22-19.71,16.41-23.79a28.57,28.57,0,0,0,13.06-10.77L227.17,279l-2.45-.3C242,257.47,260.07,246.17,279,252.29c1.31.43,7.05,2.2,7.05,2.2v-1.37s3.92,3.53,5.4,4.7c.48.37,10.62,10.32,10.78,14.91.12,3.32,9.06,20.13,9.06,20.13s5,10.63,5.43,12.93c.32,2-1.7,8.49-2.22,8.62-6.13-6.11-17.55-15.09-24.65-20-3.8-2.64-5-2.58-10.55,1l-.11,7.91-1.38-3.74.92,7.76-2-.71s-.77,14.86.34,16.87c10.12,18.34,4.79,29.1-5.9,46.53a22.18,22.18,0,0,0-2.71,6.17c-3.79,15.93-7.25,32-20.24,43.6-3,10.43-6.19,18.11-5.23,21.43-4.4,15.4,0-2.2-1.39,38.57,0,4.41,0,8.5.06,12.4A111.29,111.29,0,0,0,249,518.28c1.44,3.51,2,7.37,3.33,12.48L247.06,528c-1.2,3.14-2.25,5.91-3.3,8.68l-1.54-.34q-3.87-11.18-7.73-22.36a65.79,65.79,0,0,0,1.28,19.12c1.12,4.83-2.7,5.86-4.92,7.84s-5.13,3-7.92,4a22.74,22.74,0,0,1-7.77,1.35c-2.85-.06-5.68-1-8.86-1.58l-8.86-16-10.55,3.11c.41-5.19.42-8.83,1-12.37.67-3.92,1.19-7.89,1.64-11.87" transform="translate(18.97)"/><path d="M1074.32,425.23l-10.76-.8c12.24,10.74,24.1,21.16,36.18,31.75l-2.94,1.4,13.31,7.93-.57,1.39L1095,463.38l14.8,19.81-.65.65-6.7-5.08-.47.51,15.6,17.57-.59,1-6.23-1.79,4.59,6.23c-3.34-1.54-5.32-2.38-7.24-3.35-14.24-7.23-27.55-16.05-38.23-27.85-15-16.55-34.81-19.75-55.07-22.14-8.45-1-11.84,2.6-14.41,10.63-1.06,3.31-3.79,6.36-6.41,8.84-6.22,5.86-15,13.62-22.36,20,5.42.75,11,5.49,16.1,6.19-8.36,4.16-15.4-1.91-23.13-1.76-7.38.14-15-.11-22.34.64a21.2,21.2,0,0,1-7.51-.73c-2-.53-.91,2.31-3,1.16,3-4.66,5.78-2.76,10.41-6.33l-2.17-1,.46-2.18a10.7,10.7,0,0,1,2.41.18c7.49,1.49,13.61.17,18.88-6.13C974.68,463,975,462.2,962.93,446.21a24.45,24.45,0,0,0-6.15-5.43c-9.3-6.21-18.77-12.18-28.08-18.38-4.43-2.95-8.72-6.14-12.93-9.41-7.22-5.61-11.93-12.92-13.29-22-1-6.4-3.77-11.1-9.37-14.51-4.24-2.58-8-5.93-12-9-.51.81-.92,1.46-2.09,3.34-5.36-6.39-10.45-12.38-15.44-18.42a67.88,67.88,0,0,1-4.94-6.63,13.79,13.79,0,0,0-11.36-6.9,62.11,62.11,0,0,1-15.92-3.59l29.1-2.9c-2.66-4.24-21.79-9.12-35.71-10.28,3.3-1.59,6.51-4.32,9.91-4.57,16.42-1.18,32.89-1.71,49.35-2.41a10.1,10.1,0,0,1,3.53.68c20.42,6.71,40.92,13.2,61.19,20.33,6.07,2.14,11.76,5.7,17.19,9.26,25.34,16.6,50.25,33.86,75.91,49.95,10,6.29,19.68,12.59,27.22,21.75,1.78,2.15,3.09,4.69,5.29,8.1m-110.42,57,1,2c2.47-.83,5.28-1.19,7.35-2.61A100.88,100.88,0,0,0,982.51,473c7-6.42,7.6-15.75.7-24.74,1.23,8.83-3,14.06-8.1,19.29-4.25,4.39-7.51,9.74-11.21,14.66" transform="translate(18.97)"/><rect class="cls-3" width="1355.97" height="1092.67"/><path d="M717.31,269.81" transform="translate(18.97)"/><path d="M719.14,268.11" transform="translate(18.97)"/><path d="M541.74,277.7l-.08,0S540,280.8,541.74,277.7Z" transform="translate(18.97)"/><path d="M764.86,183.61c-2.4-7.79-11.39-20.09-11.39-20.09l-12.59-11.17a.53.53,0,0,0-.89.4.53.53,0,0,1-.79.46l-16.59-9.14s-20.67-6.3-49.13-5.7S602.78,180,602.78,180l-7.67,7.39a.54.54,0,0,0,.25.91l.55.12a.54.54,0,0,1,.19,1l-6.2,4.4,3.59.9-25.16,21-1.5,5.09-4.49,2.4,3,5.39,4.2-.3-7.19,7.19,3.29,2.4v2.71l23.07-14.1-21.87,19.24s-17.68,18.51-22.77,27.8c-1.1,2-1.84,3.35-2.32,4.21l12.51,3,6.29-3.6,1.8,3.6,9.28-7.19.3,7.19,12-14.68s22.17-23.67,31.75-22.47l.3,9.58,3.5-2.73a9.25,9.25,0,0,1,5.65-1.94c.13,0,20.57,28,20.57,28l-.58,3.41a8.48,8.48,0,0,0,2.84,8.91,68.83,68.83,0,0,0,10.91,6.79l6.21,3.11L681.11,313l-3.52-10.24c-.59-1.31-.82-8.64-1.68-9.79l-10.3-6.16c-.44-1.92-3.05-2.55-4.2-3h0L655.7,279,644,258.39c-.7-1.19.89-5.93,1.6-7.11l22.82,0v-5.63h3.29l.56-8.74a.54.54,0,0,1,.64-.49l.34.07a.54.54,0,0,0,.64-.46l.82-6.32,4.19-3.9,24.57-15,3-3.59,1.49.3,4.8-5.69,2.64-1.54a.53.53,0,0,1,.8.53l0,.31a.54.54,0,0,0,.6.61l4.1-.51,4.39,1a.54.54,0,0,1,.24.92l-.07.07a.53.53,0,0,0,.19.9l4.83,1.63h3.9l5.39,3.72,17.79,33.12a.54.54,0,0,0,.95,0c1.12-2.27,4-12.61,4-15.24,0-3.18.21-25.82.4-28.87C762.88,197.56,767.1,190.89,764.86,183.61Z" transform="translate(18.97)"/><path class="cls-3" d="M359.78,676c-.06,0,0,.07.08.15C360,675.9,360.62,675.83,359.78,676Z" transform="translate(18.97)"/><path d="M433.08,507l-3.4-3.46c-5.45-4.67-31.76-7.53-31.76-7.53s-13.25-8.2-24.64-10c-9.89-1.54-17.59.35-24.77,5.43-7.34,5.2-10,12.52-14.22,19.42l.92,1.07c-.92,1.87-5.5,9.17-5.5,9.17l-6.12,10.85c-.52,1.23-5.51,5.28-8.56,7.49-6.61,4.81-12.06,10.54-18.63,15.4-3.31,2.45-6.63,4.89-9.17,8.21a38.17,38.17,0,0,1-3.68,4.5c-3.51,3.33-3.5,7.28-6.89,10.72-8.22,8.35-12.55,21.67-15,30.63h0l-59.95,68.74,12.54-7,16.8.92-1.22,4.89,10.48-5.16.92,1.49,49.43-31a20,20,0,0,1,5.76-1c.73,1.78,12.15-4.31,12-5.57,3.31-.3,6.31-1,8.22-2.89,1.32.33,2.29.85,3.14.7a11.94,11.94,0,0,0,3-1.55c-.19,1.61-.35,3.08-.52,4.55l.4.2,3.73-2.36c-.23,1.53-.43,3-.64,4.38l.43.09,3.23-2.71a5.39,5.39,0,0,1-.31,2.18c-.45,1.37-1,2.71-1.37,4.1-.3,1.16.33,1.71,1.3,1.1a36.29,36.29,0,0,0,4.64-3.55,34.81,34.81,0,0,0,2.89-3.19c.78,2.77,3.67,7.05,4.64,9.58,1.55,4,1.57,5.79,6.06,7a1.74,1.74,0,0,1,.78.34c3.91,3.94,7.58,8.07,8.9,13.66.37,1.56.92,3.54-.88,4.62-2.05,1.23-1.4,1.63-3.82,1.22-.89-.15,1.23,4.12,2.61,6.24.13.21,11.27,1.06,11.29,1.31.4-.28-1.86-1.54-3.8-2.62,2.87-.39,1.93-.35,4.85-.71,2.46-.31,6.45.93,8.9,1.18,2.76.29-1,.26,1.76.65,1.47.2,3.27.34,4.48-.32,1.59-.87,2.77-.51,4.18,0,1.14.39,5.41,2.24,6.71,2.59-.58-2.47-5.46-5.6-7.71-5.83a23.67,23.67,0,0,1-2.64-.39c-1.34-.28-2.75-1.08-4-.86-2.57.48-4.93-.21-7.4-.51-3.45-.43-5.47-2.14-7.25-5.14-3.79-6.36-8.08-12.42-12.21-18.57a3.47,3.47,0,0,1-.49-3.23c.51-1.7.83-3.46,1.27-5.18a11.28,11.28,0,0,1,.66-1.43c.21,1.36.35,2.35.5,3.35,1.15-2,1.89-3.88,2.8-5.72,2.33-4.71,4.73-9.38,7.11-14.07,1.39-2.72,2.49-5.65,4.23-8.12,4.68-6.64,9.8-13,14.44-19.64a56.6,56.6,0,0,0,6.26-11.38A40.72,40.72,0,0,0,391,573.43a35.63,35.63,0,0,0-.32-9.34c-.53-3-.91-6.1-2.92-8.63a1.73,1.73,0,0,1-.12-1.08c.42-4.61,1-9.2,1.27-13.81a54.44,54.44,0,0,1,2.29-13.35,53.83,53.83,0,0,1,6.11-12.61,2.73,2.73,0,0,1,1.66-1.08c2.85-.48,5.72-.77,8.57-1.24q7.83-1.29,15.62-2.72c1.92-.35,8.42-1.37,10.7-1.93Zm-73.3,169c.84-.17.23-.1.08.15C359.76,676.07,359.72,676,359.78,676Z" transform="translate(18.97)"/><polygon points="234.33 673.8 238.46 673.19 237.24 676.25 239.38 677.47 244.87 673.8 252.43 670.73 235.34 669.52 234.33 673.8"/><path class="cls-4" d="M745.07,196.17c2-1.13-2.15-8.27-4.12-7.13a4.12,4.12,0,1,0,4.12,7.13Z" transform="translate(18.97)"/><path class="cls-4" d="M873.62,325c.16-1.89,7-1.31,6.86.58a3.44,3.44,0,1,1-6.86-.58Z" transform="translate(18.97)"/><path class="cls-4" d="M1014,568.92c-.13-2,7.29-2.52,7.42-.47a3.72,3.72,0,0,1-7.42.47Z" transform="translate(18.97)"/><path class="cls-4" d="M287,278c1.56-1.74-4.29-7.24-5.85-5.5a4.23,4.23,0,0,0,.32,6A3.73,3.73,0,0,0,287,278Z" transform="translate(18.97)"/><path class="cls-4" d="M375.47,501.75c.4-2,7.7-.55,7.29,1.46a3.72,3.72,0,1,1-7.29-1.46Z" transform="translate(18.97)"/><path d="M487.51,1031.41" transform="translate(18.97)"/><path d="M933.9,912.12c0-9.86-5.75-15.11-16.26-15.11-6.9,0-12.65,1.64-20.21,5.58v-7.22a43,43,0,0,1,21.36-5.43c15,0,22.67,7.23,22.67,21.52v50.27a63.57,63.57,0,0,1-19.06,2.63c-20.53,0-32-7.56-32-21,0-14,12.32-21.52,35.32-21.52h8.21Zm0,16.1H926c-18.4,0-27.93,5.09-27.93,14.95,0,9.36,9,14.78,24.8,14.78a49.57,49.57,0,0,0,11-1.15Z" transform="translate(18.97)"/><path d="M1026.38,955.82l19.55-64.4h7.56L1031,963.05h-9.36l-17.91-62.92-17.9,62.92h-9.37l-22.5-71.63h7.88l19.72,64.4,18.4-64.4h7.88Z" transform="translate(18.97)"/><path d="M1062.52,949.25c6.73,6.24,12.65,8.7,20.37,8.7,10,0,15.77-4.76,15.77-12.81s-3.13-10.84-17.75-16.1c-13.79-4.93-18.56-10-18.56-20.2,0-11.67,8.22-18.9,21.85-18.9,7.23,0,12.81,1.65,18.4,5.59v8.38c-6.41-5.26-11.83-7.4-18.56-7.4-8.87,0-14.3,4.6-14.3,12,0,7.06,3.62,10.51,15.61,14.62,8.05,2.79,10.35,3.78,13.47,6.24,4.93,3.45,7.23,8.38,7.23,15,0,12.48-8.87,20.2-23.33,20.2-7.88,0-15-2.3-20.2-6.57Z" transform="translate(18.97)"/><path class="cls-5" d="M1126.41,894.22a68,68,0,0,1,23.66-4.28c24.81,0,39.1,13.47,39.1,37,0,22.83-15,37.61-38.11,37.61a40.71,40.71,0,0,1-17.09-3.28v31.37h-7.56ZM1134,954.5a42.11,42.11,0,0,0,16.59,3.29c19.06,0,30.72-11.83,30.72-30.72,0-19.22-11.66-30.23-31.54-30.23A51.56,51.56,0,0,0,1134,899Z" transform="translate(18.97)"/><path class="cls-5" d="M1232.37,926.08l26.28,37h-8.71l-22.17-31.54-22,31.54h-8.37l26.28-37-24.81-34.66h8.71l20.7,29.24,20.37-29.24h8.54Z" transform="translate(18.97)"/></svg>
